# xmcd
#
# Track frame offsets: 
#        150
#        19720
#        39071
#        58550
#
# Disc length: 1031 seconds
#
# Revision: 0
# Processed by: cddbd v1.5.2PL0 Copyright (c) Steve Scherf et al.
# Submitted via: ExactAudioCopy v1.0b2
#
DISCID=22040504
DTITLE=ICE BAHN - Code Name
DYEAR=2011
DGENRE=Hip-Hop
TTITLE0=Code Name
TTITLE1=ICE BAHN feat. だるまさん,MINT,AMIDA - Sixth Sence
TTITLE2=Code Name -inst- 
TTITLE3=Code Name -acappella-
EXTD=
EXTT0=
EXTT1=
EXTT2=
EXTT3=
PLAYORDER=
